<mxfile host="app.diagrams.net" agent="Mozilla/5.0 (Macintosh; Intel Mac OS X 10_15_7) AppleWebKit/537.36 (KHTML, like Gecko) Chrome/133.0.0.0 Safari/537.36" version="26.1.0">
  <diagram name="Page-1" id="5dFxRylm_dYt8NnF_iFa">
    <mxGraphModel dx="500" dy="317" grid="1" gridSize="10" guides="1" tooltips="1" connect="1" arrows="1" fold="1" page="1" pageScale="1" pageWidth="850" pageHeight="1100" math="0" shadow="0">
      <root>
        <mxCell id="0" />
        <mxCell id="1" parent="0" />
        <mxCell id="6R3quX87OTXVOow-AGSZ-9" value="" style="edgeStyle=orthogonalEdgeStyle;rounded=1;orthogonalLoop=1;jettySize=auto;html=1;curved=0;" edge="1" parent="1" source="6R3quX87OTXVOow-AGSZ-4" target="6R3quX87OTXVOow-AGSZ-1">
          <mxGeometry relative="1" as="geometry" />
        </mxCell>
        <mxCell id="6R3quX87OTXVOow-AGSZ-44" value="/edit (debug)&lt;br&gt;/list" style="edgeLabel;html=1;align=center;verticalAlign=middle;resizable=0;points=[];" vertex="1" connectable="0" parent="6R3quX87OTXVOow-AGSZ-9">
          <mxGeometry x="0.3915" y="3" relative="1" as="geometry">
            <mxPoint x="16" y="-16" as="offset" />
          </mxGeometry>
        </mxCell>
        <mxCell id="6R3quX87OTXVOow-AGSZ-4" value="&lt;div&gt;&lt;span style=&quot;background-color: transparent; color: light-dark(rgb(0, 0, 0), rgb(255, 255, 255));&quot;&gt;web&lt;/span&gt;&lt;/div&gt;" style="whiteSpace=wrap;html=1;aspect=fixed;fillStyle=auto;rounded=1;" vertex="1" parent="1">
          <mxGeometry x="139" y="300" width="90" height="90" as="geometry" />
        </mxCell>
        <mxCell id="6R3quX87OTXVOow-AGSZ-5" value="user" style="rounded=1;whiteSpace=wrap;html=1;fillColor=#d5e8d4;strokeColor=#82b366;" vertex="1" parent="1">
          <mxGeometry x="360" y="207" width="90" height="60" as="geometry" />
        </mxCell>
        <mxCell id="6R3quX87OTXVOow-AGSZ-6" value="report" style="rounded=1;whiteSpace=wrap;html=1;fillColor=#dae8fc;strokeColor=#6c8ebf;" vertex="1" parent="1">
          <mxGeometry x="360" y="469" width="90" height="60" as="geometry" />
        </mxCell>
        <mxCell id="6R3quX87OTXVOow-AGSZ-7" value="task" style="rounded=1;whiteSpace=wrap;html=1;fillColor=#f5f5f5;strokeColor=#666666;fontColor=#333333;" vertex="1" parent="1">
          <mxGeometry x="360" y="389" width="90" height="60" as="geometry" />
        </mxCell>
        <mxCell id="6R3quX87OTXVOow-AGSZ-1" value="api" style="rounded=1;whiteSpace=wrap;html=1;fillColor=#fff2cc;strokeColor=#d6b656;" vertex="1" parent="1">
          <mxGeometry x="360" y="290" width="90" height="60" as="geometry" />
        </mxCell>
        <mxCell id="6R3quX87OTXVOow-AGSZ-13" value="redis" style="shape=cylinder3;whiteSpace=wrap;html=1;boundedLbl=1;backgroundOutline=1;size=15;" vertex="1" parent="1">
          <mxGeometry x="540" y="148" width="60" height="50" as="geometry" />
        </mxCell>
        <mxCell id="6R3quX87OTXVOow-AGSZ-20" value="mysql&lt;div&gt;&lt;br&gt;&lt;/div&gt;" style="shape=cylinder3;whiteSpace=wrap;html=1;boundedLbl=1;backgroundOutline=1;size=15;" vertex="1" parent="1">
          <mxGeometry x="639" y="212" width="60" height="125" as="geometry" />
        </mxCell>
        <mxCell id="6R3quX87OTXVOow-AGSZ-21" value="" style="endArrow=classic;html=1;rounded=0;exitX=1;exitY=0.75;exitDx=0;exitDy=0;entryX=0.003;entryY=0.392;entryDx=0;entryDy=0;entryPerimeter=0;" edge="1" parent="1">
          <mxGeometry width="50" height="50" relative="1" as="geometry">
            <mxPoint x="450" y="336" as="sourcePoint" />
            <mxPoint x="540.24" y="334.12" as="targetPoint" />
            <Array as="points" />
          </mxGeometry>
        </mxCell>
        <mxCell id="6R3quX87OTXVOow-AGSZ-47" value="Debug/Run" style="edgeLabel;html=1;align=center;verticalAlign=middle;resizable=0;points=[];" vertex="1" connectable="0" parent="6R3quX87OTXVOow-AGSZ-21">
          <mxGeometry x="-0.1224" y="2" relative="1" as="geometry">
            <mxPoint y="-8" as="offset" />
          </mxGeometry>
        </mxCell>
        <mxCell id="6R3quX87OTXVOow-AGSZ-22" value="" style="endArrow=classic;html=1;rounded=0;exitX=0.75;exitY=1;exitDx=0;exitDy=0;entryX=0.75;entryY=0;entryDx=0;entryDy=0;" edge="1" parent="1" source="6R3quX87OTXVOow-AGSZ-7" target="6R3quX87OTXVOow-AGSZ-6">
          <mxGeometry width="50" height="50" relative="1" as="geometry">
            <mxPoint x="450" y="420" as="sourcePoint" />
            <mxPoint x="490" y="460" as="targetPoint" />
            <Array as="points" />
          </mxGeometry>
        </mxCell>
        <mxCell id="6R3quX87OTXVOow-AGSZ-23" value="" style="endArrow=classic;html=1;rounded=0;exitX=1;exitY=0.5;exitDx=0;exitDy=0;entryX=-0.039;entryY=0.192;entryDx=0;entryDy=0;entryPerimeter=0;" edge="1" parent="1" source="6R3quX87OTXVOow-AGSZ-5" target="6R3quX87OTXVOow-AGSZ-20">
          <mxGeometry width="50" height="50" relative="1" as="geometry">
            <mxPoint x="460" y="407" as="sourcePoint" />
            <mxPoint x="643" y="302" as="targetPoint" />
          </mxGeometry>
        </mxCell>
        <mxCell id="6R3quX87OTXVOow-AGSZ-24" value="mongodb&lt;div&gt;&lt;br&gt;&lt;/div&gt;" style="shape=cylinder3;whiteSpace=wrap;html=1;boundedLbl=1;backgroundOutline=1;size=15;" vertex="1" parent="1">
          <mxGeometry x="639" y="451" width="60" height="99" as="geometry" />
        </mxCell>
        <mxCell id="6R3quX87OTXVOow-AGSZ-25" value="" style="endArrow=classic;html=1;rounded=0;exitX=1;exitY=0.5;exitDx=0;exitDy=0;entryX=0.008;entryY=0.456;entryDx=0;entryDy=0;entryPerimeter=0;" edge="1" parent="1">
          <mxGeometry width="50" height="50" relative="1" as="geometry">
            <mxPoint x="450" y="498" as="sourcePoint" />
            <mxPoint x="639.48" y="499.144" as="targetPoint" />
          </mxGeometry>
        </mxCell>
        <mxCell id="6R3quX87OTXVOow-AGSZ-39" value="to do" style="edgeLabel;html=1;align=center;verticalAlign=middle;resizable=0;points=[];" vertex="1" connectable="0" parent="6R3quX87OTXVOow-AGSZ-25">
          <mxGeometry x="-0.1285" y="1" relative="1" as="geometry">
            <mxPoint y="-4" as="offset" />
          </mxGeometry>
        </mxCell>
        <mxCell id="6R3quX87OTXVOow-AGSZ-26" value="" style="edgeStyle=orthogonalEdgeStyle;rounded=1;orthogonalLoop=1;jettySize=auto;html=1;entryX=0;entryY=0.5;entryDx=0;entryDy=0;exitX=1;exitY=0.5;exitDx=0;exitDy=0;curved=0;" edge="1" parent="1" source="6R3quX87OTXVOow-AGSZ-4" target="6R3quX87OTXVOow-AGSZ-7">
          <mxGeometry relative="1" as="geometry">
            <mxPoint x="219.9999999999999" y="334" as="sourcePoint" />
            <mxPoint x="370" y="344" as="targetPoint" />
          </mxGeometry>
        </mxCell>
        <mxCell id="6R3quX87OTXVOow-AGSZ-27" value="" style="edgeStyle=orthogonalEdgeStyle;rounded=1;orthogonalLoop=1;jettySize=auto;html=1;entryX=0;entryY=0.5;entryDx=0;entryDy=0;exitX=1;exitY=0.5;exitDx=0;exitDy=0;curved=0;" edge="1" parent="1" source="6R3quX87OTXVOow-AGSZ-4" target="6R3quX87OTXVOow-AGSZ-5">
          <mxGeometry relative="1" as="geometry">
            <mxPoint x="219.9999999999999" y="322" as="sourcePoint" />
            <mxPoint x="370" y="407" as="targetPoint" />
          </mxGeometry>
        </mxCell>
        <mxCell id="6R3quX87OTXVOow-AGSZ-46" value="/signup&lt;br&gt;/login&lt;br&gt;/logout&lt;br&gt;/profile" style="edgeLabel;html=1;align=center;verticalAlign=middle;resizable=0;points=[];" vertex="1" connectable="0" parent="6R3quX87OTXVOow-AGSZ-27">
          <mxGeometry x="0.6147" y="-1" relative="1" as="geometry">
            <mxPoint x="5" as="offset" />
          </mxGeometry>
        </mxCell>
        <mxCell id="6R3quX87OTXVOow-AGSZ-29" value="" style="edgeStyle=orthogonalEdgeStyle;rounded=1;orthogonalLoop=1;jettySize=auto;html=1;entryX=0;entryY=0.5;entryDx=0;entryDy=0;exitX=1;exitY=0.5;exitDx=0;exitDy=0;curved=0;" edge="1" parent="1" source="6R3quX87OTXVOow-AGSZ-4" target="6R3quX87OTXVOow-AGSZ-6">
          <mxGeometry relative="1" as="geometry">
            <mxPoint x="230" y="355" as="sourcePoint" />
            <mxPoint x="370" y="430" as="targetPoint" />
          </mxGeometry>
        </mxCell>
        <mxCell id="6R3quX87OTXVOow-AGSZ-31" value="" style="edgeStyle=orthogonalEdgeStyle;rounded=1;orthogonalLoop=1;jettySize=auto;html=1;entryX=0;entryY=0.5;entryDx=0;entryDy=0;exitX=1;exitY=0.5;exitDx=0;exitDy=0;curved=0;" edge="1" parent="1" source="6R3quX87OTXVOow-AGSZ-4" target="6R3quX87OTXVOow-AGSZ-32">
          <mxGeometry relative="1" as="geometry">
            <mxPoint x="219.9999999999999" y="337" as="sourcePoint" />
            <mxPoint x="380" y="432" as="targetPoint" />
          </mxGeometry>
        </mxCell>
        <mxCell id="6R3quX87OTXVOow-AGSZ-32" value="ai copilot" style="rounded=1;whiteSpace=wrap;html=1;fillColor=#e1d5e7;strokeColor=#9673a6;" vertex="1" parent="1">
          <mxGeometry x="360" y="546" width="90" height="60" as="geometry" />
        </mxCell>
        <mxCell id="6R3quX87OTXVOow-AGSZ-33" value="deepseek" style="rounded=1;whiteSpace=wrap;html=1;" vertex="1" parent="1">
          <mxGeometry x="629" y="560" width="90" height="60" as="geometry" />
        </mxCell>
        <mxCell id="6R3quX87OTXVOow-AGSZ-34" value="" style="endArrow=classic;html=1;rounded=0;exitX=1;exitY=0.75;exitDx=0;exitDy=0;entryX=0;entryY=0.5;entryDx=0;entryDy=0;" edge="1" parent="1" source="6R3quX87OTXVOow-AGSZ-32" target="6R3quX87OTXVOow-AGSZ-33">
          <mxGeometry width="50" height="50" relative="1" as="geometry">
            <mxPoint x="460" y="501" as="sourcePoint" />
            <mxPoint x="622" y="504" as="targetPoint" />
          </mxGeometry>
        </mxCell>
        <mxCell id="6R3quX87OTXVOow-AGSZ-35" style="edgeStyle=orthogonalEdgeStyle;rounded=0;orthogonalLoop=1;jettySize=auto;html=1;exitX=0.5;exitY=1;exitDx=0;exitDy=0;exitPerimeter=0;" edge="1" parent="1">
          <mxGeometry relative="1" as="geometry">
            <mxPoint x="669" y="526" as="sourcePoint" />
            <mxPoint x="669" y="526" as="targetPoint" />
          </mxGeometry>
        </mxCell>
        <mxCell id="6R3quX87OTXVOow-AGSZ-40" value="" style="endArrow=classic;html=1;rounded=0;entryX=1;entryY=0.75;entryDx=0;entryDy=0;" edge="1" parent="1" target="6R3quX87OTXVOow-AGSZ-6">
          <mxGeometry width="50" height="50" relative="1" as="geometry">
            <mxPoint x="638" y="514" as="sourcePoint" />
            <mxPoint x="480" y="449" as="targetPoint" />
          </mxGeometry>
        </mxCell>
        <mxCell id="6R3quX87OTXVOow-AGSZ-41" value="test-core&lt;br&gt;http&lt;br&gt;websocket" style="rounded=1;whiteSpace=wrap;html=1;" vertex="1" parent="1">
          <mxGeometry x="540" y="290" width="80" height="110" as="geometry" />
        </mxCell>
        <mxCell id="6R3quX87OTXVOow-AGSZ-42" value="" style="endArrow=classic;html=1;rounded=1;exitX=0;exitY=0.7;exitDx=0;exitDy=0;exitPerimeter=0;entryX=0.5;entryY=1;entryDx=0;entryDy=0;curved=0;" edge="1" parent="1" source="6R3quX87OTXVOow-AGSZ-41" target="6R3quX87OTXVOow-AGSZ-1">
          <mxGeometry width="50" height="50" relative="1" as="geometry">
            <mxPoint x="525.5300000000002" y="367.7400000000001" as="sourcePoint" />
            <mxPoint x="405" y="358" as="targetPoint" />
            <Array as="points">
              <mxPoint x="405" y="367" />
            </Array>
          </mxGeometry>
        </mxCell>
        <mxCell id="6R3quX87OTXVOow-AGSZ-43" value="" style="endArrow=classic;html=1;rounded=1;exitX=0.5;exitY=0;exitDx=0;exitDy=0;entryX=0;entryY=0.5;entryDx=0;entryDy=0;entryPerimeter=0;curved=0;" edge="1" parent="1" source="6R3quX87OTXVOow-AGSZ-1" target="6R3quX87OTXVOow-AGSZ-20">
          <mxGeometry width="50" height="50" relative="1" as="geometry">
            <mxPoint x="520" y="380" as="sourcePoint" />
            <mxPoint x="638" y="270" as="targetPoint" />
            <Array as="points">
              <mxPoint x="405" y="275" />
            </Array>
          </mxGeometry>
        </mxCell>
        <mxCell id="6R3quX87OTXVOow-AGSZ-48" value="" style="endArrow=classic;html=1;rounded=1;entryX=1;entryY=0.75;entryDx=0;entryDy=0;curved=0;" edge="1" parent="1">
          <mxGeometry width="50" height="50" relative="1" as="geometry">
            <mxPoint x="590" y="400" as="sourcePoint" />
            <mxPoint x="450" y="428.9999999999999" as="targetPoint" />
            <Array as="points">
              <mxPoint x="590" y="429" />
            </Array>
          </mxGeometry>
        </mxCell>
        <mxCell id="6R3quX87OTXVOow-AGSZ-49" value="" style="endArrow=classic;html=1;rounded=1;exitX=1;exitY=0.5;exitDx=0;exitDy=0;entryX=0.5;entryY=1;entryDx=0;entryDy=0;curved=0;" edge="1" parent="1">
          <mxGeometry width="50" height="50" relative="1" as="geometry">
            <mxPoint x="450" y="418.9999999999999" as="sourcePoint" />
            <mxPoint x="573" y="399" as="targetPoint" />
            <Array as="points">
              <mxPoint x="573" y="419" />
            </Array>
          </mxGeometry>
        </mxCell>
        <mxCell id="6R3quX87OTXVOow-AGSZ-50" value="Run" style="edgeLabel;html=1;align=center;verticalAlign=middle;resizable=0;points=[];" vertex="1" connectable="0" parent="6R3quX87OTXVOow-AGSZ-49">
          <mxGeometry x="-0.2322" y="1" relative="1" as="geometry">
            <mxPoint y="1" as="offset" />
          </mxGeometry>
        </mxCell>
        <mxCell id="6R3quX87OTXVOow-AGSZ-51" value="" style="endArrow=classic;html=1;rounded=1;exitX=1;exitY=0.15;exitDx=0;exitDy=0;entryX=0.5;entryY=1;entryDx=0;entryDy=0;entryPerimeter=0;exitPerimeter=0;curved=0;" edge="1" parent="1" source="6R3quX87OTXVOow-AGSZ-5" target="6R3quX87OTXVOow-AGSZ-13">
          <mxGeometry width="50" height="50" relative="1" as="geometry">
            <mxPoint x="460" y="262" as="sourcePoint" />
            <mxPoint x="649" y="261" as="targetPoint" />
            <Array as="points">
              <mxPoint x="570" y="217" />
            </Array>
          </mxGeometry>
        </mxCell>
        <mxCell id="6R3quX87OTXVOow-AGSZ-52" value="" style="endArrow=classic;html=1;rounded=0;exitX=0.25;exitY=0;exitDx=0;exitDy=0;entryX=0.25;entryY=1;entryDx=0;entryDy=0;" edge="1" parent="1" source="6R3quX87OTXVOow-AGSZ-6" target="6R3quX87OTXVOow-AGSZ-7">
          <mxGeometry width="50" height="50" relative="1" as="geometry">
            <mxPoint x="460" y="430" as="sourcePoint" />
            <mxPoint x="679" y="464" as="targetPoint" />
            <Array as="points" />
          </mxGeometry>
        </mxCell>
        <mxCell id="6R3quX87OTXVOow-AGSZ-60" value="" style="endArrow=classic;html=1;rounded=1;exitX=0.997;exitY=0.379;exitDx=0;exitDy=0;entryX=0.145;entryY=1;entryDx=0;entryDy=-4.35;entryPerimeter=0;exitPerimeter=0;curved=0;" edge="1" parent="1" source="6R3quX87OTXVOow-AGSZ-32" target="6R3quX87OTXVOow-AGSZ-24">
          <mxGeometry width="50" height="50" relative="1" as="geometry">
            <mxPoint x="460" y="505" as="sourcePoint" />
            <mxPoint x="651" y="505" as="targetPoint" />
            <Array as="points">
              <mxPoint x="470" y="550" />
            </Array>
          </mxGeometry>
        </mxCell>
        <mxCell id="6R3quX87OTXVOow-AGSZ-61" value="to do" style="edgeLabel;html=1;align=center;verticalAlign=middle;resizable=0;points=[];" vertex="1" connectable="0" parent="6R3quX87OTXVOow-AGSZ-60">
          <mxGeometry x="-0.1285" y="1" relative="1" as="geometry">
            <mxPoint y="-4" as="offset" />
          </mxGeometry>
        </mxCell>
        <mxCell id="6R3quX87OTXVOow-AGSZ-62" value="" style="endArrow=classic;html=1;rounded=1;exitX=1.009;exitY=0.829;exitDx=0;exitDy=0;entryX=0.5;entryY=1;entryDx=0;entryDy=0;entryPerimeter=0;curved=0;exitPerimeter=0;" edge="1" parent="1" source="6R3quX87OTXVOow-AGSZ-7" target="6R3quX87OTXVOow-AGSZ-20">
          <mxGeometry width="50" height="50" relative="1" as="geometry">
            <mxPoint x="443" y="438.9999999999999" as="sourcePoint" />
            <mxPoint x="662" y="337.0000000000001" as="targetPoint" />
            <Array as="points">
              <mxPoint x="669" y="440" />
            </Array>
          </mxGeometry>
        </mxCell>
      </root>
    </mxGraphModel>
  </diagram>
</mxfile>
